<svg version="1.1" xmlns="http://www.w3.org/2000/svg" viewBox="0 0 443.3746940527633 403.87382070478634"
	width="443.3746940527633" height="403.87382070478634">
	<!-- svg-source:excalidraw -->

	<defs>
		<style class="style-fonts">

		</style>

	</defs>
	<g stroke-linecap="round"
		transform="translate(136.8210644831753 330.2615539292601) rotate(0 66.85830860555512 22.242504959136568)">
		<path
			d="M11.12 0 C53.88 -0.72, 97.8 -1.11, 122.6 0 M11.12 0 C42.89 -1.5, 73.96 -0.51, 122.6 0 M122.6 0 C130.66 1.27, 135.67 5.34, 133.72 11.12 M122.6 0 C130.38 0.65, 133.13 5.51, 133.72 11.12 M133.72 11.12 C132.84 16.96, 132.76 21.01, 133.72 33.36 M133.72 11.12 C133.53 19.02, 134.74 25.98, 133.72 33.36 M133.72 33.36 C134.63 39.03, 131.22 45.62, 122.6 44.49 M133.72 33.36 C132.2 41.09, 131.95 43.77, 122.6 44.49 M122.6 44.49 C97.06 45.4, 70.6 42.85, 11.12 44.49 M122.6 44.49 C79.4 43.87, 36.95 43.93, 11.12 44.49 M11.12 44.49 C5.68 43.13, -1.85 39.01, 0 33.36 M11.12 44.49 C1.67 46.11, -1 39.83, 0 33.36 M0 33.36 C-0.36 28.47, -1.46 22.74, 0 11.12 M0 33.36 C-1.07 25.39, 0.15 17.46, 0 11.12 M0 11.12 C-0.36 2.43, 3.73 1.83, 11.12 0 M0 11.12 C-1.18 5.09, 3.63 0.21, 11.12 0"
			stroke="#1971c2" stroke-width="2" fill="none"></path>
	</g>
	<g stroke-linecap="round"
		transform="translate(125.90811429729081 78.98015288900933) rotate(0 76.89194996306657 157.4468339078885)">
		<path
			d="M32 0 C51.15 0, 70.3 0, 121.78 0 M32 0 C54.49 0, 76.98 0, 121.78 0 M121.78 0 C143.12 0, 153.78 10.67, 153.78 32 M121.78 0 C143.12 0, 153.78 10.67, 153.78 32 M153.78 32 C153.78 117.34, 153.78 202.67, 153.78 282.89 M153.78 32 C153.78 86.52, 153.78 141.04, 153.78 282.89 M153.78 282.89 C153.78 304.23, 143.12 314.89, 121.78 314.89 M153.78 282.89 C153.78 304.23, 143.12 314.89, 121.78 314.89 M121.78 314.89 C87.2 314.89, 52.62 314.89, 32 314.89 M121.78 314.89 C89.72 314.89, 57.65 314.89, 32 314.89 M32 314.89 C10.67 314.89, 0 304.23, 0 282.89 M32 314.89 C10.67 314.89, 0 304.23, 0 282.89 M0 282.89 C0 190.87, 0 98.84, 0 32 M0 282.89 C0 192.85, 0 102.8, 0 32 M0 32 C0 10.67, 10.67 0, 32 0 M0 32 C0 10.67, 10.67 0, 32 0"
			stroke="#f08c00" stroke-width="2" fill="none"></path>
	</g>
	<g stroke-linecap="round"
		transform="translate(136.82106445262082 275.9263640920981) rotate(0 66.85830860555512 22.242504959136568)">
		<path
			d="M11.12 0 C49.77 -2.22, 86.14 -1.72, 122.6 0 M11.12 0 C48.28 0.9, 86.57 1.01, 122.6 0 M122.6 0 C128.69 0.86, 133.61 4.55, 133.72 11.12 M122.6 0 C130.27 1.55, 135.02 3.96, 133.72 11.12 M133.72 11.12 C135.11 18.73, 135.05 28.28, 133.72 33.36 M133.72 11.12 C134.55 18.49, 134.7 24.5, 133.72 33.36 M133.72 33.36 C133.36 39.09, 131.52 45.07, 122.6 44.49 M133.72 33.36 C135.63 41.57, 129.81 45.67, 122.6 44.49 M122.6 44.49 C87.46 42.21, 51.55 43.67, 11.12 44.49 M122.6 44.49 C84.96 45.22, 46.58 44.13, 11.12 44.49 M11.12 44.49 C4.43 45.74, -0.69 41.15, 0 33.36 M11.12 44.49 C3.54 44.94, 0.31 40.08, 0 33.36 M0 33.36 C1.7 23.55, 0.78 19.02, 0 11.12 M0 33.36 C0.4 26.66, 0.4 21.21, 0 11.12 M0 11.12 C-0.05 4.63, 3.1 1.44, 11.12 0 M0 11.12 C-1.96 3.03, 2.2 1.85, 11.12 0"
			stroke="#1971c2" stroke-width="2" fill="none"></path>
	</g>
	<g stroke-linecap="round"
		transform="translate(136.82106502054478 221.59117459461413) rotate(0 66.85830860555512 22.242504959136568)">
		<path
			d="M11.12 0 C44.73 0.57, 75.06 0.57, 122.6 0 M11.12 0 C37.93 -0.43, 65.14 -1.35, 122.6 0 M122.6 0 C129.45 -0.57, 132.22 2.19, 133.72 11.12 M122.6 0 C128.52 1.98, 132.12 3.16, 133.72 11.12 M133.72 11.12 C134.17 20.51, 132.11 27.45, 133.72 33.36 M133.72 11.12 C134.71 19.97, 133.07 27.65, 133.72 33.36 M133.72 33.36 C133.79 42.21, 129.95 43.2, 122.6 44.49 M133.72 33.36 C133.12 39.91, 127.83 43.58, 122.6 44.49 M122.6 44.49 C86.68 43.62, 47.31 45.08, 11.12 44.49 M122.6 44.49 C86.32 43.65, 48.7 44.64, 11.12 44.49 M11.12 44.49 C3.07 43.08, 1.99 39.66, 0 33.36 M11.12 44.49 C2.98 43.53, -1.38 40.09, 0 33.36 M0 33.36 C-0.5 25.85, 1.75 17.83, 0 11.12 M0 33.36 C0.6 25.75, 1.03 17.02, 0 11.12 M0 11.12 C1.33 3.81, 4.66 -0.69, 11.12 0 M0 11.12 C-1.61 4.04, 2.04 -1.54, 11.12 0"
			stroke="#1971c2" stroke-width="2" fill="none"></path>
	</g>
	<g stroke-linecap="round"
		transform="translate(299.65807684165316 118.30431651244726) rotate(0 66.85830860555507 22.242504959136568)">
		<path
			d="M11.12 0 C35.23 2.53, 59.89 2.39, 122.6 0 M11.12 0 C53.48 1.63, 97.67 0.52, 122.6 0 M122.6 0 C131.39 1.65, 133.63 2.38, 133.72 11.12 M122.6 0 C129.03 -1.79, 133.04 5.5, 133.72 11.12 M133.72 11.12 C134.1 20.06, 133.28 26.39, 133.72 33.36 M133.72 11.12 C133.01 20.86, 134.67 27.95, 133.72 33.36 M133.72 33.36 C134.98 41.83, 130.13 44.64, 122.6 44.49 M133.72 33.36 C135.4 42.85, 128.25 45, 122.6 44.49 M122.6 44.49 C80.97 45.08, 36.47 44.7, 11.12 44.49 M122.6 44.49 C83.84 44.02, 43.13 45.29, 11.12 44.49 M11.12 44.49 C5.02 43.72, -1.8 42.21, 0 33.36 M11.12 44.49 C3.6 44.14, -0.58 41.02, 0 33.36 M0 33.36 C1.04 29.19, -0.01 23.86, 0 11.12 M0 33.36 C0.53 26.45, 0.9 21.67, 0 11.12 M0 11.12 C-1.21 3.82, 3.4 1.6, 11.12 0 M0 11.12 C-0.05 5.6, 5.53 -2.13, 11.12 0"
			stroke="#1971c2" stroke-width="2" fill="none"></path>
	</g>
	<g stroke-linecap="round">
		<g transform="translate(366.3696191644658 110.96600237531675) rotate(0 -61.68484537138602 -50.483001187658374)">
			<path
				d="M0 0 C0 -18.21, 0 -36.42, 0 -84.97 M0 0 C0 -28.62, 0 -57.23, 0 -84.97 M0 -84.97 C0 -95.63, -5.33 -100.97, -16 -100.97 M0 -84.97 C0 -95.63, -5.33 -100.97, -16 -100.97 M-16 -100.97 C-35.12 -100.97, -54.24 -100.97, -107.37 -100.97 M-16 -100.97 C-36.57 -100.97, -57.14 -100.97, -107.37 -100.97 M-107.37 -100.97 C-118.04 -100.97, -123.37 -95.63, -123.37 -84.97 M-107.37 -100.97 C-118.04 -100.97, -123.37 -95.63, -123.37 -84.97 M-123.37 -84.97 C-123.37 -70.5, -123.37 -56.04, -123.37 -39.32 M-123.37 -84.97 C-123.37 -72.86, -123.37 -60.75, -123.37 -39.32"
				stroke="#2f9e44" stroke-width="2" fill="none"></path>
		</g>
		<g transform="translate(366.3696191644658 110.96600237531675) rotate(0 -61.68484537138602 -50.483001187658374)">
			<path
				d="M-131.92 -62.82 C-130.09 -57.78, -128.26 -52.75, -123.37 -39.32 M-131.92 -62.82 C-129.04 -54.9, -126.16 -46.99, -123.37 -39.32"
				stroke="#2f9e44" stroke-width="2" fill="none"></path>
		</g>
		<g transform="translate(366.3696191644658 110.96600237531675) rotate(0 -61.68484537138602 -50.483001187658374)">
			<path
				d="M-114.82 -62.82 C-116.65 -57.78, -118.48 -52.75, -123.37 -39.32 M-114.82 -62.82 C-117.7 -54.9, -120.58 -46.99, -123.37 -39.32"
				stroke="#2f9e44" stroke-width="2" fill="none"></path>
		</g>
	</g>
	<mask></mask>
	<g stroke-linecap="round">
		<g transform="translate(178.53642431536127 214.25286045748362) rotate(0 -84.26821215768064 -81.83854229496865)">
			<path
				d="M0 0 C0 -54.65, 0 -109.29, 0 -147.68 M0 0 C0 -43.62, 0 -87.24, 0 -147.68 M0 -147.68 C0 -158.34, -5.33 -163.68, -16 -163.68 M0 -147.68 C0 -158.34, -5.33 -163.68, -16 -163.68 M-16 -163.68 C-62.89 -163.68, -109.78 -163.68, -168.54 -163.68 M-16 -163.68 C-57.67 -163.68, -99.34 -163.68, -168.54 -163.68"
				stroke="#e03131" stroke-width="2" fill="none"></path>
		</g>
		<g transform="translate(178.53642431536127 214.25286045748362) rotate(0 -84.26821215768064 -81.83854229496865)">
			<path
				d="M-145.04 -172.23 C-153.74 -169.06, -162.43 -165.9, -168.54 -163.68 M-145.04 -172.23 C-151.98 -169.7, -158.92 -167.18, -168.54 -163.68"
				stroke="#e03131" stroke-width="2" fill="none"></path>
		</g>
		<g transform="translate(178.53642431536127 214.25286045748362) rotate(0 -84.26821215768064 -81.83854229496865)">
			<path
				d="M-145.04 -155.13 C-153.74 -158.29, -162.43 -161.45, -168.54 -163.68 M-145.04 -155.13 C-151.98 -157.65, -158.92 -160.18, -168.54 -163.68"
				stroke="#e03131" stroke-width="2" fill="none"></path>
		</g>
	</g>
	<mask></mask>
</svg>